<svg id="Layer_1" data-name="Layer 1" xmlns="http://www.w3.org/2000/svg" viewBox="0 0 400 400">
  <circle cx="200.09" cy="200" r="189.06" fill="#eee9f3"/>
  <path d="M222.86,229.28V280a19.23,19.23,0,0,1-19.23,19.23H124.77L71,354.18a1.22,1.22,0,0,1-.85.36,1.12,1.12,0,0,1-.44-.09,1.19,1.19,0,0,1-.74-1.1V299.19H51.49A19.23,19.23,0,0,1,32.25,280V153.64a19.23,19.23,0,0,1,19.24-19.23H162.26M88.18,245.05" fill="none" stroke="#876199" stroke-linecap="round" stroke-linejoin="round" stroke-width="8"/>
  <path d="M192.78,62.58h157.8a17.66,17.66,0,0,1,17.66,17.66v116a17.65,17.65,0,0,1-17.66,17.66h-16v49.73a1.08,1.08,0,0,1-.68,1,1.15,1.15,0,0,1-.41.08,1.11,1.11,0,0,1-.78-.33l-49.39-50.49H194.78a17.66,17.66,0,0,1-17.66-17.66v-118A15.66,15.66,0,0,1,192.78,62.58ZM316.89,164.17" fill="none" stroke="#f0647e" stroke-linecap="round" stroke-linejoin="round" stroke-width="8"/>
  <g>
    <line x1="95.42" y1="188.5" x2="95.42" y2="235.92" fill="none" stroke="#f0647e" stroke-linecap="round" stroke-linejoin="round" stroke-width="8"/>
    <line x1="95.42" y1="252.01" x2="95.42" y2="252.44" fill="none" stroke="#f0647e" stroke-linecap="round" stroke-linejoin="round" stroke-width="8"/>
    <line x1="121.22" y1="188.5" x2="121.22" y2="235.92" fill="none" stroke="#f0647e" stroke-linecap="round" stroke-linejoin="round" stroke-width="8"/>
    <line x1="121.22" y1="252.01" x2="121.22" y2="252.44" fill="none" stroke="#f0647e" stroke-linecap="round" stroke-linejoin="round" stroke-width="8"/>
    <line x1="147.02" y1="188.5" x2="147.02" y2="235.92" fill="none" stroke="#f0647e" stroke-linecap="round" stroke-linejoin="round" stroke-width="8"/>
    <line x1="147.02" y1="252.01" x2="147.02" y2="252.44" fill="none" stroke="#f0647e" stroke-linecap="round" stroke-linejoin="round" stroke-width="8"/>
  </g>
  <path d="M299.37,117.88a3.47,3.47,0,0,0-3-1.76H284.18l5.38-21.39a4,4,0,0,0-.59-3,3.67,3.67,0,0,0-2.8-1.4H259.05a3.52,3.52,0,0,0-3.51,2.92l-8.76,49.09a3.36,3.36,0,0,0,.81,2.93,3.5,3.5,0,0,0,2.69,1.28h11.11l-2,36.24a3.52,3.52,0,0,0,2.57,3.62,2.54,2.54,0,0,0,.94.12,3.68,3.68,0,0,0,3.15-1.87l33.43-63.35A3.82,3.82,0,0,0,299.37,117.88Z" fill="none" stroke="#876199" stroke-linecap="round" stroke-linejoin="round" stroke-width="8"/>
</svg>
