<svg id="Layer_1" data-name="Layer 1" xmlns="http://www.w3.org/2000/svg" viewBox="0 0 400 400">
  <circle cx="200.18" cy="199.93" r="189.06" fill="#fdeced"/>
  <g>
    <g>
      <path d="M119.53,382.21a17,17,0,0,1-12-4.95l-16-16a.14.14,0,0,1,0-.18h.18l16,16a16.84,16.84,0,0,0,23.75,0l12.8-12.78a16.81,16.81,0,0,0,.7-23l-1-1.1-1.33-.63-.54-1.17L66.8,263.26l-1.15-.53-.89-1.34-1.44-.87A16.82,16.82,0,0,0,42.83,263L30,275.8a16.82,16.82,0,0,0,0,23.75L46,315.5a.13.13,0,0,1,0,.18h-.17l-16-16a17.08,17.08,0,0,1,0-24.09l12.8-12.77a17,17,0,0,1,12-5,17.15,17.15,0,0,1,7.3,1.63l4.52,2.13L99.22,229,93,222.79a18,18,0,0,1,0-25.43,17.79,17.79,0,0,1,6.9-4.3l8.92-3-5.34-7.76a18,18,0,0,1,11.14-27.75l7.55-1.55-2.15-7.4a18.56,18.56,0,0,1-.72-5.08,18,18,0,0,1,14.27-17.57l7.54-1.56L139,114a18.35,18.35,0,0,1-.71-5.06A18,18,0,0,1,162.45,92l4.63,1.69L169,91.47,169,94.74c0,.3,0,.67,0,1.12v2l-.48-2-2.29-1.56a17.74,17.74,0,0,0-27.72,14.69,17.59,17.59,0,0,0,5.18,12.54l32.66,32.61a17.75,17.75,0,0,0,27.12-22.69l-1.53-2.2-2.21-.54L231.4,97,186.74,88.5a47.44,47.44,0,0,0-8.48-1,16.35,16.35,0,0,0-3.87.41l-2.14.52a13.65,13.65,0,0,1,6.17-1.16,46.53,46.53,0,0,1,8.37,1L235.6,97.5l1.05-.12c.64-.06,1.29-.1,1.93-.1a17.94,17.94,0,0,1,17.27,23l-2.14,7.39,7.52,1.57a17.93,17.93,0,0,1,14.29,17.58,18.11,18.11,0,0,1-.72,5.07l-2.14,7.39,7.54,1.56a18,18,0,0,1,14.27,17.59,18.06,18.06,0,0,1-.72,5.07l-2.14,7.39,7.54,1.56a17.76,17.76,0,0,1,9,4.88,18,18,0,0,1,0,25.44L302,229l32.93,32.89,4.68-2.57a17.14,17.14,0,0,1,20.25,2.89L372.6,275a17.07,17.07,0,0,1,0,24.09L295,376.6a17.12,17.12,0,0,1-24.11,0l-12.8-12.79a17.08,17.08,0,0,1-2.89-20.21l2.56-4.69L221.81,303l-3.41.4a60,60,0,0,1-6.73.35c-3.73,0-7.43-.26-11-.51-3.4-.24-6.9-.48-10.18-.48-5.15,0-11.57.53-15.56,4.66l-31.16,31.12,3,4.81a17.09,17.09,0,0,1-2.4,21.09l-12.8,12.79A17,17,0,0,1,119.53,382.21ZM347.75,257.49a16.68,16.68,0,0,0-11.87,4.9l-77.63,77.53a16.82,16.82,0,0,0,0,23.73l12.8,12.78a16.86,16.86,0,0,0,23.75,0l77.63-77.54a16.83,16.83,0,0,0,0-23.74l-12.8-12.76A16.68,16.68,0,0,0,347.75,257.49ZM240.67,289.88c.06,0,.08,0,.09,0a.14.14,0,0,1,0,.17l-6.44,6.43a21.31,21.31,0,0,1-3.58,2.88l-7.43,4.78,35.19,35.14,76.78-76.69-33.5-33.46-9.92,9.91h-.18a.13.13,0,0,1,0-.18L308,222.62a17.75,17.75,0,0,0-25-25.24l-.26.25-6.19,6.19h-.17a.11.11,0,0,1,0-.17L289,191a17.75,17.75,0,0,0-25.12-25.09l-7.27,7.25h-.18a.15.15,0,0,1,0-.18l7.26-7.23,6.36-6.37A17.75,17.75,0,0,0,245,134.26l-7.31,7.29h-.17a.14.14,0,0,1,0-.17L245,134l6.2-6.17a17.74,17.74,0,0,0-12.56-30.28,18.49,18.49,0,0,0-2.46.17l-.2,0-.2,0-.33,0-.32.07A17.69,17.69,0,0,0,226,102.7l-24.67,24.66,2.93,4.78a18,18,0,0,1-15.37,27.35l-7.37-.09.06,7.26a17.91,17.91,0,0,1-18,18.1h-7.34v7.39a17.92,17.92,0,0,1-18,17.87l-7.31-.1v7.49a18,18,0,0,1-18,17.89,18,18,0,0,1-9.39-2.62l-4.79-2.93L66.2,262.31,143,339l31.71-31.67c3.28-3.37,8-4.77,15.82-4.77,3.25,0,6.76.24,10.15.48,3.65.25,7.41.51,11.1.51,6.52,0,15.93-.75,22.38-7.19l6.44-6.43Zm-140.23-60a17.75,17.75,0,0,0,25.12-25.09l-7.26-7.25a17.76,17.76,0,1,0-25.13,25.09l6.16,6.14,0,.06.21.2Zm25.29-25.27a17.75,17.75,0,1,0,25.12-25.08l-20-20a17.75,17.75,0,0,0-25.06,25.15L118,196.88ZM151,179.34a17.76,17.76,0,1,0,25.14-25.1L149.85,128a17.74,17.74,0,1,0-25.11,25.08l6.4,6.4Zm47.2-51.11c-5.68-1.78-12.18-6.68-16.55-10.86-2.41-2.3-10.36-10.4-12.46-18.62l.34.35c2.19,7.93,9.79,15.7,12.29,18.1A52,52,0,0,0,195,126.66Z" fill="none" stroke="#876199" stroke-linecap="round" stroke-linejoin="round" stroke-width="8"/>
      <line x1="266.47" y1="261.29" x2="266.47" y2="261.29" fill="none" stroke="#876199" stroke-linecap="round" stroke-linejoin="round" stroke-width="8"/>
    </g>
    <line x1="193.99" y1="46.63" x2="193.99" y2="13.18" fill="none" stroke="#f0647e" stroke-linecap="round" stroke-linejoin="round" stroke-width="8"/>
    <line x1="286.4" y1="74.12" x2="310.06" y2="50.46" fill="none" stroke="#f0647e" stroke-linecap="round" stroke-linejoin="round" stroke-width="8"/>
    <line x1="101.56" y1="74.12" x2="77.9" y2="50.46" fill="none" stroke="#f0647e" stroke-linecap="round" stroke-linejoin="round" stroke-width="8"/>
  </g>
</svg>
