<svg id="Layer_1" data-name="Layer 1" xmlns="http://www.w3.org/2000/svg" viewBox="0 0 400 400">
  <circle cx="200" cy="200" r="189.06" fill="#fdeced"/>
  <g>
    <path d="M146.52,344.65a32.44,32.44,0,0,0-32.45-32.45h-59a32.44,32.44,0,0,0-32.45,32.45,4.37,4.37,0,0,0,8.74,0,23.69,23.69,0,0,1,23.71-23.71h59a23.71,23.71,0,0,1,23.72,23.71,4.37,4.37,0,1,0,8.73,0Z" fill="#86629a"/>
    <path d="M105.09,251.91a27.76,27.76,0,1,0,8.13,19.63A27.69,27.69,0,0,0,105.09,251.91ZM98.91,285a19,19,0,1,1,5.57-13.46A19,19,0,0,1,98.91,285Z" fill="#86629a"/>
    <path d="M377.39,344.65a32.44,32.44,0,0,0-32.45-32.45h-59a32.44,32.44,0,0,0-32.45,32.45,4.37,4.37,0,1,0,8.74,0,23.69,23.69,0,0,1,23.71-23.71h59a23.69,23.69,0,0,1,23.71,23.71,4.37,4.37,0,0,0,8.74,0Z" fill="#86629a"/>
    <path d="M336,251.91a27.76,27.76,0,1,0,8.13,19.63A27.69,27.69,0,0,0,336,251.91ZM329.78,285a19,19,0,1,1,5.57-13.46A19,19,0,0,1,329.78,285Z" fill="#86629a"/>
    <path d="M35.49,182.16V150.21a23.73,23.73,0,0,1,23.72-23.72H188a9.37,9.37,0,0,1,0,18.74H120.08a4.37,4.37,0,0,0-4.37,4.37v71.26a4.37,4.37,0,0,0,8.74,0V154H188a18.11,18.11,0,0,0,0-36.21H59.21a32.47,32.47,0,0,0-32.46,32.46v31.95a4.37,4.37,0,0,0,8.74,0Z" fill="#f0647e"/>
    <path d="M109.23,57.47a27.76,27.76,0,1,0,8.13,19.63A27.65,27.65,0,0,0,109.23,57.47Zm-6.18,33.08a19,19,0,1,1,5.57-13.45A19,19,0,0,1,103.05,90.55Z" fill="#f0647e"/>
    <path d="M261.92,344.65a32.45,32.45,0,0,0-32.46-32.45h-59A32.45,32.45,0,0,0,138,344.65a4.37,4.37,0,0,0,8.74,0,23.71,23.71,0,0,1,23.72-23.71h59a23.71,23.71,0,0,1,23.72,23.71,4.37,4.37,0,0,0,8.74,0Z" fill="#86629a"/>
    <path d="M220.48,251.91a27.76,27.76,0,1,0,8.13,19.63A27.69,27.69,0,0,0,220.48,251.91ZM214.3,285a19,19,0,1,1,5.57-13.46A19,19,0,0,1,214.3,285Z" fill="#86629a"/>
    <path d="M55.46,147.38V209.2a4.37,4.37,0,0,0,8.74,0V147.38a4.37,4.37,0,0,0-8.74,0" fill="#f0647e"/>
  </g>
  <path d="M141.58,221h203A19.92,19.92,0,0,0,364.54,201V94A19.92,19.92,0,0,0,344.61,74h-170" fill="none" stroke="#b2a8d2" stroke-linecap="round" stroke-linejoin="round" stroke-width="8"/>
  <line x1="159.08" y1="74.03" x2="159.08" y2="74.03" fill="none" stroke="#f0647e" stroke-linecap="round" stroke-linejoin="round" stroke-width="8"/>
  <line x1="31.12" y1="196.44" x2="31.12" y2="196.44" fill="none" stroke="#f0647e" stroke-linecap="round" stroke-linejoin="round" stroke-width="8"/>
  <line x1="59.83" y1="223" x2="59.83" y2="223" fill="none" stroke="#f0647e" stroke-linecap="round" stroke-linejoin="round" stroke-width="8"/>
  <g>
    <polyline points="291.15 150.25 306.49 115.18 321.84 150.25" fill="none" stroke="#b2a8d2" stroke-linecap="round" stroke-linejoin="round" stroke-width="8"/>
    <line x1="252.33" y1="115.18" x2="306.49" y2="115.18" fill="none" stroke="#b2a8d2" stroke-linecap="round" stroke-linejoin="round" stroke-width="8"/>
    <path d="M321.84,150.25a15.35,15.35,0,1,1-30.69,0Z" fill="none" stroke="#b2a8d2" stroke-linecap="round" stroke-linejoin="round" stroke-width="8"/>
    <g>
      <polyline points="236.99 150.25 252.33 115.18 267.67 150.25" fill="none" stroke="#b2a8d2" stroke-linecap="round" stroke-linejoin="round" stroke-width="8"/>
      <path d="M267.67,150.25a15.35,15.35,0,1,1-30.69,0Z" fill="none" stroke="#b2a8d2" stroke-linecap="round" stroke-linejoin="round" stroke-width="8"/>
    </g>
    <line x1="265.03" y1="183.13" x2="293.31" y2="183.13" fill="none" stroke="#b2a8d2" stroke-linecap="round" stroke-linejoin="round" stroke-width="8"/>
    <line x1="279.17" y1="183.13" x2="279.17" y2="115.18" fill="none" stroke="#b2a8d2" stroke-linecap="round" stroke-linejoin="round" stroke-width="8"/>
  </g>
  <g>
    <circle cx="279.41" cy="147.49" r="57.33" fill="none" stroke="#f0647e" stroke-linecap="round" stroke-linejoin="round" stroke-width="8"/>
    <line x1="323.26" y1="110.56" x2="242.33" y2="191.49" fill="none" stroke="#f0647e" stroke-linecap="round" stroke-linejoin="round" stroke-width="8"/>
  </g>
</svg>
